<svg width="44" height="75" viewBox="0 0 44 75" fill="none" xmlns="http://www.w3.org/2000/svg">
<path d="M38.2696 89C37.8626 89 37.6273 88.9861 37.6273 88.9861L14.4093 88.9871C14.4073 88.9881 14.178 89 13.7948 89C7.52821 89 0.831787 86.5065 0.831787 79.5103V28.3501C0.831787 19.7855 7.68902 14.6366 20.6729 13.4425V1.61207H31.3865V13.4425C44.3704 14.6366 51.2306 19.7855 51.2306 28.3501V79.5103C51.2306 83.2674 49.3049 86.0747 45.6658 87.6291C42.7693 88.866 39.5283 89 38.2696 89Z" fill="#D6FEFD"/>
<path d="M0.831787 32.3634V79.5103C0.831787 83.3498 2.85383 85.8255 5.70769 87.2847H46.3557C49.5362 85.6786 51.2306 83.0143 51.2306 79.5103V32.3634H0.831787Z" fill="#87E3FF"/>
<path d="M30.7236 15.672C32.3486 15.664 33.9756 15.7971 35.5886 16.0422C37.2017 16.2815 38.7968 16.6765 40.3464 17.2265C41.886 17.7953 43.3859 18.5328 44.6872 19.5592C45.3364 20.0724 45.934 20.6501 46.4591 21.2844C46.9654 21.9346 47.4031 22.6364 47.7118 23.3878C46.8314 22.021 45.6819 20.8854 44.3676 19.997C43.0484 19.1165 41.6061 18.4266 40.1062 17.8895C38.6092 17.3376 37.0538 16.9346 35.4874 16.5733C33.917 16.2219 32.3258 15.9539 30.7236 15.672Z" fill="white"/>
<path d="M33.1048 1.71034C33.1048 2.23049 32.661 2.65833 32.122 2.65833H19.9402C19.3992 2.65833 18.9575 2.23049 18.9575 1.71034V0.950972C18.9575 0.426853 19.3992 6.00765e-06 19.9402 6.00765e-06H32.122C32.661 6.00765e-06 33.1048 0.426853 33.1048 0.950972V1.71034Z" fill="#55AAD0"/>
<path d="M52.0635 59.5908C52.0635 60.5705 51.2167 61.3726 50.1834 61.3726H1.88107C0.845733 61.3726 0 60.5705 0 59.5908V55.1963C0 54.2165 0.845733 53.4145 1.88107 53.4145H50.1834C51.2167 53.4145 52.0635 54.2165 52.0635 55.1963V59.5908Z" fill="#55AAD0"/>
<path d="M52.0635 32.3634C52.0635 33.3431 51.2167 34.1442 50.1834 34.1442H1.88107C0.845733 34.1442 0 33.3431 0 32.3634V27.9709C0 26.9921 0.845733 26.1901 1.88107 26.1901H50.1834C51.2167 26.1901 52.0635 26.9921 52.0635 27.9709V32.3634Z" fill="#55AAD0"/>
<path d="M31.4184 5.52411H20.6442C20.0317 5.52411 19.5513 6.16237 19.5513 6.97634V8.29459C19.5513 9.11154 20.0317 9.7498 20.6442 9.7498H31.4184C32.0309 9.7498 32.5093 9.11154 32.5093 8.29459V6.97634C32.5093 6.16237 32.0309 5.52411 31.4184 5.52411Z" fill="#BBFBFA"/>
</svg>
