<svg width="60" height="88" viewBox="0 0 60 88" fill="none" xmlns="http://www.w3.org/2000/svg">
<path d="M46.6274 82.6694C46.2592 82.7216 46.0446 82.7392 46.0446 82.7392L25.0396 85.7158C25.0379 85.717 24.832 85.7571 24.4853 85.8062C18.816 86.6094 12.4382 85.2118 11.5416 78.8824L4.98457 32.5983C3.88689 24.85 9.43065 19.313 21.024 16.5686L19.5077 5.86571L29.2003 4.49258L30.7165 15.1954C42.6159 14.6117 49.4822 18.3906 50.5799 26.1389L57.1369 72.423C57.6184 75.8221 56.236 78.6085 53.143 80.4813C50.6811 81.9715 47.7661 82.5081 46.6274 82.6694Z" fill="#D6FEFD"/>
<path d="M5.49905 36.2291L11.5417 78.8824C12.0338 82.3561 14.1804 84.3366 16.9493 85.291L53.7231 80.0813C56.3946 78.2206 57.5861 75.5931 57.137 72.423L51.0944 29.7697L5.49905 36.2291Z" fill="#418DE8"/>
<path d="M53.0286 58.9105C53.3143 59.9766 53.5289 61.0519 53.7338 62.1295C53.9448 63.2053 54.1075 64.2888 54.2699 65.3706C54.4164 66.4565 54.5611 67.5426 54.6563 68.6348C54.7579 69.727 54.8504 70.8196 54.872 71.9231C54.5854 70.8571 54.3699 69.7819 54.1659 68.7042C53.954 67.6286 53.7913 66.545 53.6314 65.4611C53.486 64.3769 53.3413 63.2908 53.2461 62.1986C53.1427 61.1066 53.0511 60.0139 53.0286 58.9105Z" fill="white"/>
<path d="M49.4121 33.3826C49.7075 34.517 49.932 35.6624 50.1465 36.8082C50.3678 37.9558 50.5401 39.1076 50.7124 40.2595C50.8687 41.4145 51.0231 42.5688 51.1283 43.7319C51.2397 44.8933 51.3422 46.0559 51.3735 47.2277C51.0772 46.0935 50.8518 44.9483 50.638 43.8014C50.416 42.6548 50.2437 41.503 50.0739 40.3499C49.9186 39.1957 49.7643 38.0413 49.6589 36.8773C49.5459 35.7171 49.4443 34.5543 49.4121 33.3826Z" fill="white"/>
<path d="M30.4027 17.2974C31.8718 17.082 33.3607 16.9938 34.8514 17.0089C36.3414 17.0186 37.8352 17.1715 39.3075 17.4704C40.7733 17.7877 42.2247 18.2627 43.5336 19.0245C44.1867 19.4056 44.8014 19.8517 45.3578 20.3582C45.8991 20.8815 46.3851 21.4603 46.7607 22.1006C45.7889 20.9768 44.6034 20.0968 43.3006 19.4615C41.9942 18.834 40.601 18.3947 39.1752 18.1011C37.7502 17.7937 36.2913 17.6284 34.8279 17.5023C33.3622 17.3857 31.8883 17.3471 30.4027 17.2974Z" fill="white"/>
<path d="M30.7672 4.36125C30.8339 4.83182 30.4873 5.27575 29.9996 5.34483L18.9789 6.90612C18.4895 6.97546 18.035 6.64501 17.9683 6.17444L17.871 5.48745C17.8038 5.01328 18.1488 4.57051 18.6382 4.50117L29.6589 2.93988C30.1466 2.8708 30.6027 3.20009 30.6699 3.67426L30.7672 4.36125Z" fill="#62DAFF"/>
<path d="M58.878 79.2868C59.0034 80.1723 58.3402 81.0064 57.4053 81.1389L13.7067 87.3296C12.77 87.4623 11.9021 86.8451 11.7766 85.9596L11.2133 81.9831C11.0879 81.0976 11.7502 80.2636 12.6868 80.1309L56.3855 73.9402C57.3203 73.8078 58.1892 74.4249 58.3146 75.3103L58.878 79.2868Z" fill="#62DAFF"/>
<path d="M13.4785 85.7186L12.9152 81.742L56.6138 75.5513L57.1772 79.5279L13.4785 85.7186Z" fill="#62DAFF"/>
<path d="M55.3373 54.2952C55.4629 55.1816 54.7996 56.0157 53.8648 56.1482L10.1661 62.3389C9.22948 62.4716 8.36156 61.8543 8.23599 60.968L7.67277 56.9924C7.5472 56.106 8.20953 55.272 9.14619 55.1393L52.8448 48.9486C53.7797 48.8161 54.6485 49.4332 54.7741 50.3196L55.3373 54.2952Z" fill="#62DAFF"/>
<path d="M9.93799 60.7269L9.37477 56.7513L53.0734 50.5606L53.6366 54.5362L9.93799 60.7269Z" fill="#62DAFF"/>
<path d="M51.8477 29.6628C51.9733 30.5492 51.3099 31.3824 50.375 31.5148L6.67639 37.7056C5.73974 37.8382 4.87194 37.2219 4.74637 36.3356L4.18341 32.3617C4.05796 31.4763 4.72029 30.6423 5.65695 30.5096L49.3556 24.3189C50.2904 24.1864 51.1593 24.8035 51.2847 25.689L51.8477 29.6628Z" fill="#62DAFF"/>
<path d="M6.44824 36.0946L5.88528 32.1208L49.5839 25.9301L50.1469 29.9039L6.44824 36.0946Z" fill="#62DAFF"/>
<path d="M29.7301 8.02763L19.9828 9.40852C19.4287 9.48702 19.0759 10.126 19.1802 10.8624L19.3491 12.055C19.4538 12.7941 19.9703 13.31 20.5244 13.2315L30.2717 11.8506C30.8258 11.7721 31.1769 11.1333 31.0722 10.3942L30.9032 9.20164C30.7989 8.46524 30.2842 7.94914 29.7301 8.02763Z" fill="#BBFBFA"/>
</svg>
