<svg width="122" height="84" viewBox="0 0 122 84" fill="none" xmlns="http://www.w3.org/2000/svg">
<path d="M109.854 32.1244C109.854 33.418 110.903 34.4666 112.196 34.4666C113.49 34.4666 114.538 33.418 114.538 32.1244C114.538 30.8307 113.49 29.7826 112.196 29.7826C110.903 29.7826 109.854 30.8307 109.854 32.1244Z" fill="#61C9F8"/>
<path d="M113.449 31.2467C113.702 31.7642 113.596 32.4468 113.21 32.9099C112.825 33.3741 112.173 33.6023 111.618 33.4471C112.181 33.3951 112.682 33.1466 113.016 32.7479C113.347 32.3482 113.501 31.8094 113.449 31.2467Z" fill="white"/>
<path d="M0.444011 148.186H121.115V63.5063C121.199 61.068 121.857 58.1904 121.247 48.2877C120.949 43.4504 103.667 53.6293 99.2603 53.8369C99.0226 53.848 98.7792 53.8038 98.577 53.6785C98.0531 53.3538 98.1773 52.8552 98.3515 52.4467C99.7687 49.1252 103.798 48.0284 106.995 46.3496C110.192 44.6708 113.032 40.3831 110.592 37.7212C108.134 35.0384 103.686 37.4758 101.312 40.2332C99.6813 42.1271 97.7469 44.347 95.5657 45.2122C93.9345 45.8594 92.3658 44.0719 93.2162 42.5365C94.2269 40.7126 96.0363 39.1648 97.5345 37.6166C101.52 33.498 103.94 27.8864 104.121 22.1474C104.171 20.5506 103.209 19.0494 101.704 18.5147C99.1904 17.6217 97.4731 20.0345 96.4364 22.1353C93.1578 28.7786 90.3875 36.2078 84.3005 40.4303C83.2695 41.1454 82.1062 41.7665 80.8521 41.7976C79.1625 41.8391 77.6596 40.825 76.1634 40.0388C68.7314 36.1332 58.77 37.8593 53.085 44.0371C49.6379 44.5226 46.7219 41.332 45.4921 38.0754C44.2622 34.819 43.9847 31.1896 42.2195 28.1892C40.2467 24.8353 37.0909 22.6143 33.4558 22.5269C32.0751 22.4934 31.0117 23.7553 31.2487 25.1165C31.5481 26.8368 32.3816 28.4079 33.7326 29.632C35.6845 31.4003 36.516 32.069 37.3985 34.551C38.4511 37.5119 38.2276 43.3353 33.8011 40.9448C32.8002 40.4044 31.9988 39.5459 31.5066 38.5203C28.8893 33.0656 23.3421 29.2039 17.3567 28.5065C14.5915 28.1841 11.6019 28.5551 9.55004 30.6255C8.30131 31.8854 7.69163 33.6837 8.14163 35.3993C9.09869 39.0523 13.7827 39.7542 17.4978 40.244C23.5305 41.0397 29.3926 43.104 34.5924 46.2642C35.7929 46.9937 37.0308 48.0854 37.7441 49.2876C38.5814 50.6987 37.1304 52.3555 35.6207 51.7138C24.4028 46.9454 12.5039 43.7806 0.398438 42.3499L0.444011 148.186Z" fill="#61C9F8"/>
<path d="M11.5137 10.4808C10.7177 9.48053 9.93716 8.17914 10.4294 6.99928C10.8699 5.94399 12.2489 5.50512 13.3346 5.86363C14.4206 6.22249 15.2092 7.19575 15.6532 8.24969C16.0974 9.3033 16.253 10.4514 16.4671 11.5749C16.8783 13.7371 17.7864 15.3748 18.7309 17.2902C15.9614 15.8163 13.4534 12.9195 11.5137 10.4808Z" fill="#61C9F8"/>
<path d="M12.2226 17.6021C11.5451 17.1339 10.7771 16.7197 9.95337 16.7322C9.13 16.7447 8.26714 17.3219 8.19591 18.1423C8.124 18.9751 8.84137 19.6628 9.57157 20.0692C10.8831 20.7994 12.3938 21.0644 13.813 21.5515C14.9689 21.9485 16.039 22.5599 16.8482 23.4579C15.8854 21.11 14.318 19.0504 12.2226 17.6021Z" fill="#61C9F8"/>
<path d="M7.57668 1.80528C7.65365 2.72216 8.45913 3.40307 9.37602 3.3261C10.2929 3.24913 10.9735 2.44365 10.8968 1.52711C10.8199 0.610224 10.0144 -0.0706874 9.09751 0.00594426C8.18096 0.0829139 7.50005 0.888402 7.57668 1.80528Z" fill="#61C9F8"/>
<path d="M6.36364 13.49C6.41901 14.1487 6.99763 14.6381 7.65693 14.5831C8.31556 14.5274 8.80506 13.9488 8.7497 13.2898C8.69467 12.6309 8.11538 12.1417 7.45675 12.1967C6.79778 12.2521 6.30828 12.8311 6.36364 13.49Z" fill="#61C9F8"/>
<path d="M12.4551 6.72724C12.9341 6.69754 13.4246 6.88625 13.8159 7.1786C14.2149 7.46791 14.5326 7.85208 14.7935 8.2582C15.309 9.07482 15.6162 10.0342 15.601 10.9893C15.3495 10.0727 15.0052 9.21424 14.5086 8.43881C14.2662 8.04991 13.985 7.68869 13.6501 7.3825C13.3142 7.08171 12.922 6.83088 12.4551 6.72724Z" fill="white"/>
<path d="M8.99219 0.752264C9.1468 0.695549 9.3264 0.695884 9.48877 0.748885C9.65352 0.79851 9.80172 0.895386 9.92392 1.01658C10.0428 1.14081 10.1366 1.29105 10.1829 1.45646C10.2328 1.62019 10.2294 1.79978 10.1693 1.95305C10.087 1.63741 9.94148 1.39705 9.74298 1.19348C9.54414 0.990931 9.30614 0.840374 8.99219 0.752264Z" fill="white"/>
<path d="M9.24561 17.7307C9.66894 17.6018 10.1304 17.5754 10.5764 17.6477C11.0247 17.7149 11.4575 17.8762 11.8518 18.1017C12.243 18.333 12.5972 18.6301 12.877 18.9862C13.1602 19.3383 13.3652 19.7529 13.4617 20.1846C13.0198 19.4214 12.4098 18.8161 11.6823 18.3937C10.9558 17.9687 10.1277 17.7368 9.24561 17.7307Z" fill="white"/>
<path d="M7.47363 12.6664C7.74539 12.5323 8.11775 12.6627 8.29295 12.9391C8.4712 13.2143 8.43305 13.6075 8.19674 13.7976C8.24704 13.5117 8.20079 13.269 8.0796 13.0755C7.9557 12.8841 7.75417 12.74 7.47363 12.6664Z" fill="white"/>
<path d="M10.7422 35.9181C10.1845 35.3871 9.96036 34.5418 10.0545 33.7579C10.0994 33.3629 10.2139 32.9744 10.3894 32.6108C10.566 32.2445 10.8229 31.9235 11.1034 31.6389C11.6702 31.0616 12.3913 30.6785 13.1232 30.3969C13.8639 30.1251 14.6295 29.9658 15.4022 29.8699C16.9517 29.7055 18.531 29.8558 20.0066 30.3247C21.4788 30.7956 22.8531 31.5714 23.956 32.6189C22.6799 31.7945 21.2998 31.1919 19.8634 30.8317C18.4253 30.485 16.9369 30.3753 15.4782 30.5404C14.7493 30.6177 14.0239 30.7676 13.3372 30.9978C12.6492 31.2247 11.9997 31.5572 11.4626 32.0217C10.9218 32.4835 10.5336 33.1013 10.3796 33.8112C10.2129 34.5094 10.305 35.2899 10.7422 35.9181Z" fill="white"/>
<path d="M32.854 24.7984C33.4536 24.526 34.1237 24.4106 34.7911 24.4156C35.4598 24.4207 36.1313 24.5436 36.7619 24.7775C37.3935 25.0084 37.9836 25.3518 38.4954 25.7822C39.0065 26.2119 39.441 26.7358 39.7188 27.333C39.2178 26.908 38.7165 26.5319 38.1868 26.2092C37.6572 25.8875 37.1015 25.6245 36.5283 25.4105C35.9537 25.1992 35.3606 25.0385 34.7485 24.9389C34.1362 24.8396 33.5106 24.8001 32.854 24.7984Z" fill="white"/>
<path d="M57.8862 44.3366C58.3592 43.2313 59.2295 42.3138 60.2395 41.6389C61.2611 40.9678 62.4399 40.5505 63.6491 40.3558C64.8655 40.1546 66.1 40.2217 67.3025 40.4C68.5063 40.5877 69.6761 40.9168 70.8195 41.2919C73.1032 42.0596 75.2786 43.0342 77.5533 43.6661C78.6893 43.9727 79.8512 44.2093 81.026 44.2552C82.1978 44.3146 83.3955 44.1495 84.4782 43.633C83.4657 44.2876 82.2298 44.5364 81.025 44.5864C79.81 44.6191 78.6011 44.447 77.424 44.1769C75.0632 43.6324 72.8504 42.6726 70.6064 41.9319C69.4867 41.5511 68.351 41.2301 67.1985 41.0289C66.0494 40.822 64.8719 40.7457 63.7207 40.876C62.5712 41.0164 61.4285 41.3435 60.4104 41.9201C59.3831 42.4785 58.4942 43.3046 57.8862 44.3366Z" fill="white"/>
<path d="M98.8677 21.2407C98.9922 20.9406 99.2346 20.6803 99.5371 20.5217C99.8369 20.3576 100.185 20.285 100.534 20.2901C100.881 20.2965 101.239 20.3981 101.546 20.5848C101.852 20.7674 102.111 21.0243 102.313 21.3126C102.727 21.8889 102.912 22.5954 102.941 23.2851C102.966 23.9762 102.838 24.6453 102.689 25.2833C102.361 26.5425 102.01 27.7895 101.521 29.0045C101.038 30.2144 100.419 31.3919 99.5749 32.382C100.184 31.2356 100.642 30.0449 101.025 28.8276C101.401 27.6106 101.722 26.3626 102.034 25.1233C102.191 24.5106 102.305 23.8995 102.304 23.298C102.313 22.7008 102.168 22.107 101.874 21.6002C101.575 21.1013 101.103 20.6945 100.506 20.6182C99.9257 20.5247 99.2485 20.7013 98.8677 21.2407Z" fill="white"/>
<path d="M121.991 73.1957C122.003 71.5017 122.003 71.5017 121.993 67.5266C121.98 62.0307 111.345 68.0654 105.249 67.9874C99.5772 67.9145 95.7372 67.6583 88.6371 65.0136C80.0627 61.8201 69.8349 54.9529 59.6986 54.3294C51.899 53.85 41.1391 57.7633 31.0221 59.5043C17.2705 61.8707 11.5154 51.3691 0.633986 54.536L0 149.562L121.456 148.934L121.991 73.1957Z" fill="#418DE8"/>
</svg>
